<svg xmlns="http://www.w3.org/2000/svg" viewBox="-4 -4 44 56">
  <path fill="#cd202d" d="M21.135 46.766c-.655-2.38-1.3-4.764-1.966-7.14-1.424-5.052-2.836-10.108-4.3-15.148-.894-3.069-2.487-4.307-5.638-4.571q-4.151-.348-8.3-.712c-.221-.02-.439-.081-.927-.175l5.351-2c1.369-.511 2.735-1.032 4.109-1.528a5.546 5.546 0 0 1 6.566 1.878 12.9 12.9 0 0 1 2.349 6.663c.933 7.4 1.9 14.8 2.85 22.2a4 4 0 0 1 0 .507Z"/>
  <path fill="#cd202d" d="M36.055 19.033c-2.853.241-5.705.516-8.561.711a5.21 5.21 0 0 0-5.161 5.123q-.45 5.757-.916 11.512a.46.46 0 0 1-.2.361c-.082-.763-.177-1.525-.246-2.289-.347-3.863-.7-7.726-1.025-11.592a7.5 7.5 0 0 1 1.739-5.839 4.27 4.27 0 0 1 4.918-1.379c3.154 1.081 6.313 2.146 9.47 3.217Z"/>
  <path fill="#cd202d" d="M12.737 5.249c.345-2.909 2.821-5.318 5.386-5.247a5.714 5.714 0 0 1 5.164 5.247Z"/>
  <path fill="#cd202d" d="M23.287 7.249c-.345 2.909-2.821 5.318-5.386 5.247a5.714 5.714 0 0 1-5.164-5.247Z"/>
</svg>
