<?xml version="1.0" encoding="utf-8"?>
<!-- Generator: Adobe Illustrator 24.1.3, SVG Export Plug-In . SVG Version: 6.00 Build 0)  -->
<svg version="1.1" id="Layer_1" xmlns="http://www.w3.org/2000/svg" xmlns:xlink="http://www.w3.org/1999/xlink" x="0px" y="0px"
	 viewBox="0 0 1500 1500" style="enable-background:new 0 0 1500 1500;" xml:space="preserve">
<style type="text/css">
	.st0{fill:#EC2426;}
	.st1{fill:#E51F21;}
	.st2{fill:#E11D21;stroke:#E11D21;stroke-miterlimit:10;}
	.st3{fill:#E21B1E;}
	.st4{fill:none;}
	.st5{fill:#E11D22;}
	.st6{font-family:'Nunito-Regular';}
	.st7{font-size:40.9105px;}
</style>
<path class="st0" d="M337.8,988.7c1.3-40.4-2.9-81.3,2.3-121.3c8-39.9,36.1-75,74.7-89.1c47.7-13.9,98.7-4.7,147.8-7.2
	c9.4,0,18.8-0.1,28.2-0.1c3.6-0.1,12-0.6,8.1,5.1c-16,18-32.6,35.7-50.1,52.3c-47.4,44.6-103,1.6-143.7,45.7
	c-14.2,14.9-18,36.5-17.1,56.5c-1.2,38.6,2.2,78.5-1.5,116.4c-13.8,14.5-27.8,28.8-41.7,43.2c-1.3,1.5-3.5,3.3-5.3,3.1
	c-0.8-0.7-1.2-1.7-1.3-2.8c-0.2-6.4-0.2-12.8-0.3-19.2C337.8,1043.8,337.7,1016.2,337.8,988.7L337.8,988.7z M298.6,982.5
	c-1.3,36.5,2.6,74.3-1.5,110.2c-14.8-9.5-25.4-25.7-37.1-38.9c-3.3-5.6-10.6-9.8-11.3-16.4c0.1-40.8,0.3-81.6-0.1-122.5
	c-0.1-6.1-1.7-12.1-3.8-18c-6.5-20.2-22.3-35.9-42.5-42.2c-19.1-6-39.3-2.5-58.9-4.1c-39.8-1.7-66.4-32.1-91.6-59.2
	c-3.7-5.4-26.2-22.5-8.1-21c47.5,0.2,95-0.5,142.4,0.2c33.9,0.6,65.3,18,86.4,44.2c38.9,46.7,23,111.7,26.1,167.7L298.6,982.5z"/>
<path class="st1" d="M226.2,674.1c10.3-103.6,166.1-105.9,178.2,0H226.2z M226.5,701.4c58.3-0.5,116.7,0,175-0.2
	c2,0,2.8,0.3,2.4,2.6C384.9,804.2,242.6,802.3,226.5,701.4"/>
<path class="st2" d="M834.7,1030.3c20.3,28.1,7.1,70.7-27.6,78.5c-23.9,6.6-58.4-8.1-60-36.7c3.1-8.7,12.6-4.2,15,2.5
	c21.8,45,89,9.3,61.5-33.3c-71.3,45.2-122.1-73.3-40.6-93.9c10.7-2.2,21.5-1.4,31.3,3.8C844.5,965.1,855.4,1003.5,834.7,1030.3
	L834.7,1030.3z M830,998.6c0.4-48.3-74.2-48.5-74.1,0C755.8,1046.7,829.9,1047.7,830,998.6L830,998.6z"/>
<path class="st3" d="M1118,965.3c21.2-30.9,71-22.4,77.3,15.6c3.4,19.9,1.1,40.4,1.7,60.6c1.5,11.3-15.2,12.9-15.2,1.3
	c-0.4-18.6,0.9-37.4-1-56c-2.5-34-51.2-33.2-53.7-1c-2.6,19.6,0.1,39.6-1.5,59.2c-1.5,8.2-14,7.9-14.6-0.5
	c-2.4-22.2,3.3-45.6-3.7-67.1c-9-24.8-48.6-19.5-50.9,6.9c-2.8,19.3-1,39-1.5,58.5c-1.1,13-17.8,9.9-15-4.5
	c1.9-27.9-8-62.7,16.5-83.2C1075,940.2,1105.8,944.3,1118,965.3 M1425.2,963.1v-62.3c-0.4-5.5,2-11.2,8-10.7
	c3.9,0.1,6.9,3.5,7.1,7.9v153c-17.7,0.3-35.4,0.2-53.1,0.1c-62.9-1.1-69.7-92.7-9.2-103.8C1396.3,943.8,1412.4,949.1,1425.2,963.1
	 M1425.2,1035.7c-0.4-14.6,0.9-29.2-0.7-43.8c-3.3-20.1-23.3-33.8-43.3-29.7c-43.6,8.3-37.5,73,5.8,73.5
	C1399.7,1035.7,1412.4,1035.7,1425.2,1035.7L1425.2,1035.7z M1301.7,985.1c-13-35.3-65.4-28.2-71.1,8c-3.1,20.1,10.6,39,30.8,42.2
	c0.6,0.1,1.3,0.2,1.9,0.2c12.9,0.5,25.9-0.1,38.8,0.1c5.6,0,8.9,3.2,8.7,8.2c-0.1,4-3.1,7.1-7.9,7.1c-14.3,0.1-28.6,0.7-42.8-0.6
	c-55.1-5.9-60.2-86.8-7.5-102c27-8.1,57,8.3,63.9,35c1.9,7.1,1.5,16.9-8.5,16.8c-20,0.2-40,0-60,0.1c-3.1,0-5.7-1.1-7.2-3.9
	c-2.9-5.2,0.5-11.1,6.5-11.1c8.7-0.1,17.4,0,26.1,0C1283,985.1,1292.2,985.4,1301.7,985.1"/>
<path class="st2" d="M1006.1,985.2c-12.5-34.7-64.6-29.3-70.7,6.7c-4.4,20.2,9.9,40.4,30.3,43.3c13.5,1.1,27.1,0.2,40.7,0.5
	c11.7-0.5,11.7,15.8-0.2,15.4c-11.1,0-22.3,0-33.4,0c-26.4,0.7-50.1-19.8-53-46.2c-7.1-66,93.1-81.9,102.2-14.2
	c-0.2,13.2-16.2,8.9-25,9.6h-44.5c-10.4,0.6-11.1-15.2-0.8-15C969.9,985.2,988,985.2,1006.1,985.2z M639.6,976.7V911
	c0-4.8-1.1-5.9-6-5.9h-40.7c-5.2,0-8-2.9-7.9-8c-0.1-5,4.7-7.5,9.4-7h105.5c5.2-0.6,10.4,2.6,9.5,8.4c-0.4,4-3.2,6.6-7.4,6.7
	c-13.3,0.1-26.7,0-40,0c-6.4,0-7.1,0.7-7.1,7.2c-0.1,43.8,0.2,87.6-0.1,131.4c-0.4,4.5-3.5,7.5-7.6,7.4c-4.4-0.1-7.5-3.3-7.5-8
	C639.6,1021,639.6,998.8,639.6,976.7L639.6,976.7z M863.4,1011.6c-0.5-36.7-4.4-69.1,44.1-65.1c10-0.1,9.4,15.2-0.3,15.1
	c-13.1-0.6-28.6,1.5-28.2,17.9c-0.8,21.1-0.4,42.3-0.6,63.5c-0.1,5.9-4.2,9.1-9.8,7.7c-3.4-0.8-5.2-3.2-5.2-7.1
	C863.3,1032.9,863.3,1022.2,863.4,1011.6L863.4,1011.6z M722.5,998.6v44.3c0,4.1-1.9,6.8-5.4,7.8c-3.9,1.2-8.1-1-9.3-4.9
	c-0.2-0.6-0.3-1.1-0.3-1.7c-0.2-29.4,0-58.9-0.1-88.3c-0.6-5.3,2.8-10.1,8.6-9.3c3.8,0.4,6.4,3.3,6.4,7.4
	C722.5,968.8,722.4,983.7,722.5,998.6L722.5,998.6z M722.9,927.7c0.2,10.3-16.1,9.9-15.9-0.1C707.5,917.3,722.7,917.3,722.9,927.7z"
	/>
<path class="st4" d="M0,0h1500v1500H0V0z"/>
<g>
	<text transform="matrix(1 0 0 1 847.8983 1103.7528)" class="st5 st6 st7">Powering Life Together ... Together</text>
</g>
</svg>
